<?xml version="1.0" ?>
<svg xmlns="http://www.w3.org/2000/svg" width="128" height="128" fill="none"><path fill="#1B0D43" d="M16.565 28.098q-1.286.915-2.755 1.408-1.47.494-3.342.494-3.343.001-5.216-2.104-1.873-2.103-1.873-5.652v-5.598H0v-4.353h3.38V7.5h5.582v4.793h4.885v4.353H8.962v5.598q0 1.354.606 2.122.605.768 1.892.768.807 0 1.542-.274.735-.275 1.69-.86zM30.537 24.377q1.193-1.298 1.194-3.458 0-2.157-1.194-3.457t-2.957-1.299q-1.762 0-2.956 1.299t-1.194 3.457q0 2.16 1.194 3.458 1.192 1.299 2.956 1.299t2.957-1.3m-7.86 4.518a9.33 9.33 0 0 1-3.692-3.22Q17.59 23.59 17.59 20.92q0-2.67 1.395-4.756a9.34 9.34 0 0 1 3.692-3.22 10.9 10.9 0 0 1 4.903-1.133q2.535 0 4.83 1.134a9.6 9.6 0 0 1 3.729 3.22q1.431 2.085 1.432 4.755t-1.36 4.757q-1.358 2.085-3.654 3.219t-4.977 1.134q-2.608 0-4.903-1.134M55.944 24.146q1.304-1.243 1.304-3.292 0-1.903-1.102-3.147t-2.976-1.244q-1.138 0-2.405.805-1.268.805-2.443 2.305v4.244q2.13 1.573 4.04 1.573 2.278 0 3.582-1.244m3.103-11.14q1.836 1.19 2.939 3.274 1.101 2.086 1.102 4.647-.002 2.56-1.194 4.646a8.6 8.6 0 0 1-3.306 3.274q-2.112 1.19-4.756 1.19-3.086 0-5.51-2.086v5.195h3.343V37.5H39.434v-4.354h3.416v-16.5h-3.416v-4.353h8.888v3.329q1.47-1.83 3.232-2.817 1.764-.988 3.526-.988 2.13 0 3.967 1.19"></path><path fill="#FF6847" d="M71 4.5v20h4V.5H51v4z"></path></svg>